<svg width="308" height="211" viewBox="0 0 308 211" fill="none" xmlns="http://www.w3.org/2000/svg">
<g clip-path="url(#clip0_492_30)">
<g opacity="0.5">
<path d="M254.5 153C254.5 201 254.5 201 77 201C45.5198 201 20 175.48 20 144C20 112.52 45.5198 87 77 87C108.48 87 254.5 121.52 254.5 153Z" fill="#F5F5F5"/>
<circle cx="134" cy="72" r="72" fill="#F5F5F5"/>
<circle cx="221" cy="96" r="55" fill="#F5F5F5"/>
<path d="M308.004 146C308.004 176.376 283.38 201 253.004 201C54 201 54.0039 201 54.0039 146C54.0039 115.624 222.628 91 253.004 91C283.38 91 308.004 115.624 308.004 146Z" fill="#F5F5F5"/>
</g>
<g opacity="0.75">
<path d="M234.5 153C234.5 201 234.5 201 57 201C25.5198 201 0 175.48 0 144C0 112.52 25.5198 87 57 87C88.4802 87 234.5 121.52 234.5 153Z" fill="white"/>
<circle cx="114" cy="72" r="72" fill="white"/>
<circle cx="201" cy="96" r="55" fill="white"/>
<path d="M288.004 146C288.004 176.376 263.38 201 233.004 201C34 201 34.0039 201 34.0039 146C34.0039 115.624 202.628 91 233.004 91C263.38 91 288.004 115.624 288.004 146Z" fill="white"/>
</g>
<path d="M244.5 163C244.5 211 244.5 211 67 211C35.5198 211 10 185.48 10 154C10 122.52 35.5198 97 67 97C98.4802 97 244.5 131.52 244.5 163Z" fill="white"/>
<circle cx="124" cy="82" r="72" fill="white"/>
<circle cx="211" cy="106" r="55" fill="white"/>
<path d="M298.004 156C298.004 186.376 273.38 211 243.004 211C44 211 44.0039 211 44.0039 156C44.0039 125.624 212.628 101 243.004 101C273.38 101 298.004 125.624 298.004 156Z" fill="white"/>
<ellipse cx="105.5" cy="102" rx="14.5" ry="20" fill="#363F48"/>
<ellipse cx="111.5" cy="91.5" rx="2.5" ry="3.5" fill="white"/>
<ellipse cx="165.5" cy="102" rx="14.5" ry="20" fill="#363F48"/>
<ellipse cx="171.5" cy="91.5" rx="2.5" ry="3.5" fill="white"/>
<path d="M162.99 133C164.647 133 166.016 134.347 165.852 135.996C164.349 151.158 151.557 163 136 163C120.443 163 107.651 151.158 106.148 135.996C105.984 134.347 107.345 133 109.002 133C122.628 133 120.484 133 136 133C151.627 133 147.561 133 162.99 133Z" fill="#363F48"/>
<path opacity="0.8" d="M156 155C151 160 145.717 163 135.5 163C125.283 163 120.5 159 116 155C124.5 148 124.783 148 135 148C145.217 148 145 148 156 155Z" fill="#FF628F"/>
</g>
<defs>
<clipPath id="clip0_492_30">
<rect width="308" height="211" fill="white"/>
</clipPath>
</defs>
</svg>
